<?xml version="1.0" encoding="UTF-8"?>
<svg version="1.1" xmlns="http://www.w3.org/2000/svg" width="36" height="48">
<path d="M0 0 C0.69480469 0.15984375 1.38960937 0.3196875 2.10546875 0.484375 C2.66878906 0.73703125 3.23210938 0.9896875 3.8125 1.25 C4.1425 2.24 4.4725 3.23 4.8125 4.25 C5.4725 4.25 6.1325 4.25 6.8125 4.25 C7.06 4.9925 7.3075 5.735 7.5625 6.5 C8.60803335 9.33353641 8.60803335 9.33353641 10.86621094 10.94628906 C13.54498961 14.11700601 13.31960563 16.90323835 13.203125 20.859375 C13.19746521 21.58618469 13.19180542 22.31299438 13.18597412 23.06182861 C13.16364553 25.37523245 13.11346048 27.6870672 13.0625 30 C13.04243023 31.57159216 13.02418029 33.14320868 13.0078125 34.71484375 C12.96379293 38.56049717 12.89479375 42.40498289 12.8125 46.25 C9.39653845 47.38865385 6.98787791 47.27524163 3.39453125 47.12890625 C1.51411133 47.05639648 1.51411133 47.05639648 -0.40429688 46.98242188 C-1.71462891 46.92634766 -3.02496094 46.87027344 -4.375 46.8125 C-5.7102663 46.75925765 -7.04555272 46.7065174 -8.38085938 46.65429688 C-11.64997144 46.52447654 -14.91878919 46.38950464 -18.1875 46.25 C-18.3579098 42.62516606 -18.52312604 39.00011226 -18.6875 35.375 C-18.73519531 34.36179688 -18.78289063 33.34859375 -18.83203125 32.3046875 C-18.96744657 29.28686028 -19.08080516 26.26896761 -19.1875 23.25 C-19.23116699 22.29617432 -19.27483398 21.34234863 -19.31982422 20.35961914 C-19.3457666 19.47137451 -19.37170898 18.58312988 -19.3984375 17.66796875 C-19.42728027 16.88188232 -19.45612305 16.0957959 -19.48583984 15.28588867 C-19.10712257 12.70149966 -18.34332187 12.02597373 -16.3125 10.4375 C-15.28125 9.715625 -14.25 8.99375 -13.1875 8.25 C-11.98299696 5.69816596 -11.98299696 5.69816596 -11.1875 3.25 C-8.09685174 -0.68355233 -4.7202262 -1.1689866 0 0 Z " fill="#536063" transform="translate(21.1875,0.75)"/>
<path d="M0 0 C0.33 0.66 0.66 1.32 1 2 C0.67 2.99 0.34 3.98 0 5 C0.99 4.67 1.98 4.34 3 4 C3.66 4.33 4.32 4.66 5 5 C4.67 5.66 4.34 6.32 4 7 C3.01 6.67 2.02 6.34 1 6 C2.08160141 8.9994093 2.08160141 8.9994093 4 12 C7.06361777 13.43968727 7.06361777 13.43968727 10 14 C10 15.98 10 17.96 10 20 C10.66 20 11.32 20 12 20 C12 23.63 12 27.26 12 31 C11.01 31 10.02 31 9 31 C8.67 31.99 8.34 32.98 8 34 C5.69 34 3.38 34 1 34 C0.67 34.66 0.34 35.32 0 36 C1.32 36.33 2.64 36.66 4 37 C3.67 37.66 3.34 38.32 3 39 C2.34 39 1.68 39 1 39 C1 38.34 1 37.68 1 37 C0.071875 36.814375 0.071875 36.814375 -0.875 36.625 C-3 36 -3 36 -5 34 C-5.125 30.875 -5.125 30.875 -5 28 C-5.66 27.67 -6.32 27.34 -7 27 C-6.01 26.67 -5.02 26.34 -4 26 C-4 26.66 -4 27.32 -4 28 C-3.01 27.67 -2.02 27.34 -1 27 C-1.33 26.01 -1.66 25.02 -2 24 C-4.97 23.67 -7.94 23.34 -11 23 C-11 23.66 -11 24.32 -11 25 C-10.34 25 -9.68 25 -9 25 C-8.67 26.65 -8.34 28.3 -8 30 C-12.75 31 -12.75 31 -15 31 C-15 30.34 -15 29.68 -15 29 C-14.01 28.67 -13.02 28.34 -12 28 C-12.99 27.67 -13.98 27.34 -15 27 C-15.33 26.01 -15.66 25.02 -16 24 C-15.67 23.360625 -15.34 22.72125 -15 22.0625 C-13.77260784 19.53100366 -14.13238532 18.60284404 -15 16 C-15 15.34 -15 14.68 -15 14 C-15.66 14 -16.32 14 -17 14 C-16.67 13.01 -16.34 12.02 -16 11 C-15.34 11 -14.68 11 -14 11 C-14 10.34 -14 9.68 -14 9 C-13.34 8.67 -12.68 8.34 -12 8 C-11.690625 7.21625 -11.38125 6.4325 -11.0625 5.625 C-8.67509989 -0.27328264 -6.2107072 -0.35154946 0 0 Z " fill="#515C5E" transform="translate(21,2)"/>
<path d="M0 0 C0.69480469 0.15984375 1.38960937 0.3196875 2.10546875 0.484375 C2.66878906 0.73703125 3.23210938 0.9896875 3.8125 1.25 C4.1425 2.24 4.4725 3.23 4.8125 4.25 C5.4725 4.25 6.1325 4.25 6.8125 4.25 C7.06 4.9925 7.3075 5.735 7.5625 6.5 C8.60803335 9.33353641 8.60803335 9.33353641 10.86621094 10.94628906 C13.54498961 14.11700601 13.31960563 16.90323835 13.203125 20.859375 C13.19746521 21.58618469 13.19180542 22.31299438 13.18597412 23.06182861 C13.16364553 25.37523245 13.11346048 27.6870672 13.0625 30 C13.04243023 31.57159216 13.02418029 33.14320868 13.0078125 34.71484375 C12.96379293 38.56049717 12.89479375 42.40498289 12.8125 46.25 C9.39653845 47.38865385 6.98787791 47.27524163 3.39453125 47.12890625 C1.51411133 47.05639648 1.51411133 47.05639648 -0.40429688 46.98242188 C-1.71462891 46.92634766 -3.02496094 46.87027344 -4.375 46.8125 C-5.7102663 46.75925765 -7.04555272 46.7065174 -8.38085938 46.65429688 C-11.64997144 46.52447654 -14.91878919 46.38950464 -18.1875 46.25 C-18.3579098 42.62516606 -18.52312604 39.00011226 -18.6875 35.375 C-18.73519531 34.36179688 -18.78289063 33.34859375 -18.83203125 32.3046875 C-18.96744657 29.28686028 -19.08080516 26.26896761 -19.1875 23.25 C-19.23116699 22.29617432 -19.27483398 21.34234863 -19.31982422 20.35961914 C-19.3457666 19.47137451 -19.37170898 18.58312988 -19.3984375 17.66796875 C-19.42728027 16.88188232 -19.45612305 16.0957959 -19.48583984 15.28588867 C-19.10712257 12.70149966 -18.34332187 12.02597373 -16.3125 10.4375 C-15.28125 9.715625 -14.25 8.99375 -13.1875 8.25 C-11.98299696 5.69816596 -11.98299696 5.69816596 -11.1875 3.25 C-8.09685174 -0.68355233 -4.7202262 -1.1689866 0 0 Z M-9.5625 3 C-11.1553913 5.2055418 -11.64709146 6.63802537 -12.1875 9.25 C-13.1775 9.745 -13.1775 9.745 -14.1875 10.25 C-14.1875 10.91 -14.1875 11.57 -14.1875 12.25 C-15.1775 12.58 -16.1675 12.91 -17.1875 13.25 C-17.1875 13.91 -17.1875 14.57 -17.1875 15.25 C-16.5275 15.25 -15.8675 15.25 -15.1875 15.25 C-15.1875 22.25 -15.1875 22.25 -15.75 24.25 C-16.41973629 26.30887681 -16.41973629 26.30887681 -15.1875 28.25 C-15.8475 28.58 -16.5075 28.91 -17.1875 29.25 C-17.1875 34.53 -17.1875 39.81 -17.1875 45.25 C-7.6175 45.25 1.9525 45.25 11.8125 45.25 C11.8125 37.33 11.8125 29.41 11.8125 21.25 C11.1525 21.25 10.4925 21.25 9.8125 21.25 C9.8125 19.27 9.8125 17.29 9.8125 15.25 C8.884375 15.04375 7.95625 14.8375 7 14.625 C3.8125 13.25 3.8125 13.25 1.9375 10.125 C1.56625 9.17625 1.195 8.2275 0.8125 7.25 C2.1325 7.58 3.4525 7.91 4.8125 8.25 C4.8125 7.59 4.8125 6.93 4.8125 6.25 C3.8225 5.92 2.8325 5.59 1.8125 5.25 C0.8225 5.745 0.8225 5.745 -0.1875 6.25 C-0.001875 5.610625 0.18375 4.97125 0.375 4.3125 C0.519375 3.631875 0.66375 2.95125 0.8125 2.25 C-0.34495487 0.88002255 -0.34495487 0.88002255 -3.5 0.9375 C-7.18088076 0.92564229 -7.18088076 0.92564229 -9.5625 3 Z " fill="#90999B" transform="translate(21.1875,0.75)"/>
<path d="M0 0 C2.0625 0.75 2.0625 0.75 4 2 C5.1754712 5.5264136 4.94703104 8.272297 4.7421875 11.94140625 C4.82726562 12.62074219 4.91234375 13.30007812 5 14 C5.99 14.66 6.98 15.32 8 16 C7.01 16 6.02 16 5 16 C4.67 16.99 4.34 17.98 4 19 C1.69 19 -0.62 19 -3 19 C-3.33 19.66 -3.66 20.32 -4 21 C-2.68 21.33 -1.36 21.66 0 22 C-0.33 22.66 -0.66 23.32 -1 24 C-1.66 24 -2.32 24 -3 24 C-3 23.34 -3 22.68 -3 22 C-3.61875 21.87625 -4.2375 21.7525 -4.875 21.625 C-7 21 -7 21 -9 19 C-9.125 15.875 -9.125 15.875 -9 13 C-9.66 12.67 -10.32 12.34 -11 12 C-10.01 11.67 -9.02 11.34 -8 11 C-8 11.66 -8 12.32 -8 13 C-7.01 12.67 -6.02 12.34 -5 12 C-5.33 11.01 -5.66 10.02 -6 9 C-8.97 8.67 -11.94 8.34 -15 8 C-15 8.66 -15 9.32 -15 10 C-14.34 10 -13.68 10 -13 10 C-12.67 11.65 -12.34 13.3 -12 15 C-16.75 16 -16.75 16 -19 16 C-19 15.34 -19 14.68 -19 14 C-18.01 13.67 -17.02 13.34 -16 13 C-16.99 12.67 -17.98 12.34 -19 12 C-19.33 11.01 -19.66 10.02 -20 9 C-19.01 9 -18.02 9 -17 9 C-16.67 6.69 -16.34 4.38 -16 2 C-14.68 2 -13.36 2 -12 2 C-12 3.65 -12 5.3 -12 7 C-10.29159719 5.36587557 -9.06546953 4.13093906 -8 2 C-7.34 2 -6.68 2 -6 2 C-6 3.65 -6 5.3 -6 7 C-4.68 7 -3.36 7 -2 7 C-2 5.02 -2 3.04 -2 1 C-1.34 0.67 -0.68 0.34 0 0 Z " fill="#4C575A" transform="translate(25,17)"/>
<path d="M0 0 C0.61875 0.185625 1.2375 0.37125 1.875 0.5625 C4.04160178 1.23686176 4.04160178 1.23686176 6 0 C6.33 1.32 6.66 2.64 7 4 C5.35 4 3.7 4 2 4 C2.99 4.33 3.98 4.66 5 5 C5 6.32 5 7.64 5 9 C4.01 9 3.02 9 2 9 C1.67 10.98 1.34 12.96 1 15 C0.01 15 -0.98 15 -2 15 C-2 13.35 -2 11.7 -2 10 C-2.99 10.33 -3.98 10.66 -5 11 C-5.33 12.98 -5.66 14.96 -6 17 C-6.99 17 -7.98 17 -9 17 C-8.814375 16.4225 -8.62875 15.845 -8.4375 15.25 C-7.95499768 12.76855951 -8.28296567 11.39011444 -9 9 C-9 8.34 -9 7.68 -9 7 C-9.66 7 -10.32 7 -11 7 C-10.67 6.01 -10.34 5.02 -10 4 C-7.03 4 -4.06 4 -1 4 C-0.67 2.68 -0.34 1.36 0 0 Z " fill="#546062" transform="translate(15,9)"/>
<path d="M0 0 C0.69480469 0.15984375 1.38960937 0.3196875 2.10546875 0.484375 C2.66878906 0.73703125 3.23210938 0.9896875 3.8125 1.25 C4.1425 2.24 4.4725 3.23 4.8125 4.25 C5.4725 4.25 6.1325 4.25 6.8125 4.25 C7.080625 5.013125 7.34875 5.77625 7.625 6.5625 C8.58508128 9.24379205 8.58508128 9.24379205 10.375 10.625 C12.29881737 12.79975007 12.12411408 14.08287606 12 16.9375 C11.97292969 17.74574219 11.94585937 18.55398437 11.91796875 19.38671875 C11.88316406 20.00160156 11.84835938 20.61648437 11.8125 21.25 C11.1525 21.25 10.4925 21.25 9.8125 21.25 C9.8125 19.27 9.8125 17.29 9.8125 15.25 C7.5025 14.92 5.1925 14.59 2.8125 14.25 C2.1525 11.94 1.4925 9.63 0.8125 7.25 C2.1325 6.92 3.4525 6.59 4.8125 6.25 C3.1625 6.25 1.5125 6.25 -0.1875 6.25 C-0.1875 4.93 -0.1875 3.61 -0.1875 2.25 C-4.82183872 1.82180431 -4.82183872 1.82180431 -9 3.4375 C-10.42461069 5.61190579 -11.32734883 7.80187745 -12.1875 10.25 C-12.8475 9.92 -13.5075 9.59 -14.1875 9.25 C-10.9767562 2.36983471 -10.9767562 2.36983471 -8.1875 0.25 C-5.16213276 -0.7734753 -3.08744059 -0.76461943 0 0 Z " fill="#798385" transform="translate(21.1875,0.75)"/>
<path d="M0 0 C0.99 0 1.98 0 3 0 C3 4.29 3 8.58 3 13 C-0.63 13 -4.26 13 -8 13 C-8 12.34 -8 11.68 -8 11 C-6.68 11 -5.36 11 -4 11 C-4 10.34 -4 9.68 -4 9 C-3.01 9 -2.02 9 -1 9 C-1 8.01 -1 7.02 -1 6 C-1.66 6 -2.32 6 -3 6 C-3 5.34 -3 4.68 -3 4 C-4.98 4 -6.96 4 -9 4 C-8.67 3.34 -8.34 2.68 -8 2 C-5.69 2 -3.38 2 -1 2 C-0.67 1.34 -0.34 0.68 0 0 Z " fill="#566366" transform="translate(30,33)"/>
<path d="M0 0 C1.98 0 3.96 0 6 0 C6 0.66 6 1.32 6 2 C6.66 2 7.32 2 8 2 C8 2.99 8 3.98 8 5 C7.01 5 6.02 5 5 5 C5 5.66 5 6.32 5 7 C3.68 7 2.36 7 1 7 C1 7.66 1 8.32 1 9 C0.38125 8.835 -0.2375 8.67 -0.875 8.5 C-2.96063386 7.92365356 -2.96063386 7.92365356 -5 8 C-5.66 7.67 -6.32 7.34 -7 7 C-7.625 3.9375 -7.625 3.9375 -8 1 C-6.68 1 -5.36 1 -4 1 C-4 1.66 -4 2.32 -4 3 C-2.35 2.67 -0.7 2.34 1 2 C1 2.66 1 3.32 1 4 C1.66 3.34 2.32 2.68 3 2 C2.01 1.34 1.02 0.68 0 0 Z " fill="#5F6D70" transform="translate(21,37)"/>
<path d="M0 0 C1.32 0 2.64 0 4 0 C4 1.65 4 3.3 4 5 C5.70840281 3.36587557 6.93453047 2.13093906 8 0 C8.66 0 9.32 0 10 0 C10 1.65 10 3.3 10 5 C10.99 5.33 11.98 5.66 13 6 C9.90521121 7.03159626 8.47368607 6.97482862 5.3125 6.5625 C4.50425781 6.46066406 3.69601563 6.35882812 2.86328125 6.25390625 C2.24839844 6.17011719 1.63351563 6.08632813 1 6 C1 6.66 1 7.32 1 8 C1.66 8 2.32 8 3 8 C3.33 9.65 3.66 11.3 4 13 C-0.75 14 -0.75 14 -3 14 C-3 13.34 -3 12.68 -3 12 C-2.01 11.67 -1.02 11.34 0 11 C-0.99 10.67 -1.98 10.34 -3 10 C-3.33 9.01 -3.66 8.02 -4 7 C-3.01 7 -2.02 7 -1 7 C-0.67 4.69 -0.34 2.38 0 0 Z " fill="#424C4D" transform="translate(9,19)"/>
<path d="M0 0 C0.33 0.66 0.66 1.32 1 2 C0.01 2.99 -0.98 3.98 -2 5 C-1.34 5 -0.68 5 0 5 C1.7578125 10.95703125 1.7578125 10.95703125 2 13 C1.01 14.485 1.01 14.485 0 16 C0.33 16.99 0.66 17.98 1 19 C0.01 19 -0.98 19 -2 19 C-2 17.02 -2 15.04 -2 13 C-2.66 13 -3.32 13 -4 13 C-4.10824843 11.3973218 -4.18570645 9.79254252 -4.25 8.1875 C-4.29640625 7.29417969 -4.3428125 6.40085937 -4.390625 5.48046875 C-4 3 -4 3 -1.984375 1.17578125 C-1.00210937 0.59376953 -1.00210937 0.59376953 0 0 Z " fill="#576467" transform="translate(6,11)"/>
<path d="M0 0 C2.38686847 1.92489393 2.32547994 2.72313287 2.6875 5.6875 C2.77 6.96625 2.8525 8.245 2.9375 9.5625 C1.9475 10.0575 1.9475 10.0575 0.9375 10.5625 C0.6075 11.5525 0.2775 12.5425 -0.0625 13.5625 C-2.0625 12.5625 -2.0625 12.5625 -3.0625 10.5625 C-2.4025 10.5625 -1.7425 10.5625 -1.0625 10.5625 C-0.7325 8.9125 -0.4025 7.2625 -0.0625 5.5625 C-2.0425 6.5525 -2.0425 6.5525 -4.0625 7.5625 C-4.0625 5.2525 -4.0625 2.9425 -4.0625 0.5625 C-2.0625 -0.4375 -2.0625 -0.4375 0 0 Z " fill="#465051" transform="translate(27.0625,17.4375)"/>
<path d="M0 0 C0.66 0.99 1.32 1.98 2 3 C3.32381517 4.67423683 4.65576661 6.34211215 6 8 C7.32 7.67 8.64 7.34 10 7 C8.22555028 9.24606427 7.41647515 9.95081002 4.51953125 10.29296875 C3.62621094 10.25816406 2.73289062 10.22335938 1.8125 10.1875 C0.91144531 10.16042969 0.01039062 10.13335937 -0.91796875 10.10546875 C-1.60503906 10.07066406 -2.29210938 10.03585938 -3 10 C-2.34 9.34 -1.68 8.68 -1 8 C-1.66 7.34 -2.32 6.68 -3 6 C-2.34 5.67 -1.68 5.34 -1 5 C-1.33 3.68 -1.66 2.36 -2 1 C-1.34 0.67 -0.68 0.34 0 0 Z " fill="#4F5C5F" transform="translate(11,36)"/>
<path d="M0 0 C0.33 0.66 0.66 1.32 1 2 C0.67 2.99 0.34 3.98 0 5 C0.99 4.67 1.98 4.34 3 4 C3.66 4.33 4.32 4.66 5 5 C4.67 5.66 4.34 6.32 4 7 C3.01 6.67 2.02 6.34 1 6 C0.67 6.99 0.34 7.98 0 9 C-1.32 8.34 -2.64 7.68 -4 7 C-3.67 6.67 -3.34 6.34 -3 6 C-3.99 5.67 -4.98 5.34 -6 5 C-4.35 4.67 -2.7 4.34 -1 4 C-1 3.01 -1 2.02 -1 1 C-2.32 1 -3.64 1 -5 1 C-5.33 1.99 -5.66 2.98 -6 4 C-7.32 3.67 -8.64 3.34 -10 3 C-7.29536552 -0.8183075 -4.37912428 -0.24787496 0 0 Z " fill="#475153" transform="translate(21,2)"/>
<path d="M0 0 C0.928125 0.2784375 0.928125 0.2784375 1.875 0.5625 C4.04160178 1.23686176 4.04160178 1.23686176 6 0 C6.33 1.32 6.66 2.64 7 4 C5.35 4 3.7 4 2 4 C2.99 4.33 3.98 4.66 5 5 C5 5.66 5 6.32 5 7 C2.36 6.67 -0.28 6.34 -3 6 C-3 5.34 -3 4.68 -3 4 C-2.34 4 -1.68 4 -1 4 C-0.67 2.68 -0.34 1.36 0 0 Z " fill="#657174" transform="translate(15,9)"/>
<path d="M0 0 C0.33 0 0.66 0 1 0 C1 1.98 1 3.96 1 6 C1.66 6 2.32 6 3 6 C3 9.3 3 12.6 3 16 C1.68 15.67 0.36 15.34 -1 15 C-0.67 10.05 -0.34 5.1 0 0 Z " fill="#5B6668" transform="translate(30,16)"/>
<path d="M0 0 C0 4 0 4 -1.25 5.75 C-3 7 -3 7 -7 7 C-6.625 4.0625 -6.625 4.0625 -6 1 C-4 0 -4 0 0 0 Z " fill="#67777B" transform="translate(11,39)"/>
<path d="M0 0 C1.32 0 2.64 0 4 0 C4 0.66 4 1.32 4 2 C5.65 1.67 7.3 1.34 9 1 C8.67 1.99 8.34 2.98 8 4 C6.824375 4.2165625 6.824375 4.2165625 5.625 4.4375 C3.03578982 4.87798925 3.03578982 4.87798925 1 6 C0.67 4.02 0.34 2.04 0 0 Z " fill="#758387" transform="translate(13,38)"/>
<path d="M0 0 C4.75 -0.125 4.75 -0.125 7 1 C7.72159424 2.64363134 8.39351421 4.31050386 9 6 C8.01 6 7.02 6 6 6 C6 5.34 6 4.68 6 4 C4.35 4.33 2.7 4.66 1 5 C0.67 3.35 0.34 1.7 0 0 Z " fill="#5A676A" transform="translate(11,34)"/>
<path d="M0 0 C2.0625 0.4375 2.0625 0.4375 4 1 C3.01 1.99 2.02 2.98 1 4 C1.66 4 2.32 4 3 4 C2.67 5.98 2.34 7.96 2 10 C1.01 10 0.02 10 -1 10 C-0.814375 9.443125 -0.62875 8.88625 -0.4375 8.3125 C0.07438502 5.60682204 -0.42343384 3.66661851 -1 1 C-0.67 0.67 -0.34 0.34 0 0 Z " fill="#4E5B5D" transform="translate(7,16)"/>
<path d="M0 0 C1.65 1.65 3.3 3.3 5 5 C3.1875 6.0625 3.1875 6.0625 1 7 C0.01 6.67 -0.98 6.34 -2 6 C-2 5.34 -2 4.68 -2 4 C-3.32 3.67 -4.64 3.34 -6 3 C-2.25 1.875 -2.25 1.875 0 3 C0 2.01 0 1.02 0 0 Z " fill="#546062" transform="translate(22,10)"/>
<path d="M0 0 C0.66 0 1.32 0 2 0 C2.268125 0.7425 2.53625 1.485 2.8125 2.25 C3.94229421 4.86636554 5.20893202 6.80187111 7 9 C4.69 8.67 2.38 8.34 0 8 C0 5.36 0 2.72 0 0 Z " fill="#8A9395" transform="translate(26,5)"/>
<path d="M0 0 C1.65 0 3.3 0 5 0 C4.67 1.32 4.34 2.64 4 4 C1.36 4 -1.28 4 -4 4 C-4 3.34 -4 2.68 -4 2 C-2.68 2 -1.36 2 0 2 C0 1.34 0 0.68 0 0 Z " fill="#4C5A5D" transform="translate(26,42)"/>
<path d="M0 0 C1.98 0 3.96 0 6 0 C6 0.66 6 1.32 6 2 C6.66 2 7.32 2 8 2 C8 2.99 8 3.98 8 5 C6.35 5 4.7 5 3 5 C3 4.01 3 3.02 3 2 C2.01 1.34 1.02 0.68 0 0 Z " fill="#657276" transform="translate(21,37)"/>
<path d="M0 0 C0.33 0.66 0.66 1.32 1 2 C0.01 2.99 -0.98 3.98 -2 5 C-1.34 5.33 -0.68 5.66 0 6 C-0.99 6.33 -1.98 6.66 -3 7 C-3 8.98 -3 10.96 -3 13 C-3.33 13 -3.66 13 -4 13 C-4.10824843 11.3973218 -4.18570645 9.79254252 -4.25 8.1875 C-4.29640625 7.29417969 -4.3428125 6.40085937 -4.390625 5.48046875 C-4 3 -4 3 -1.984375 1.17578125 C-1.00210937 0.59376953 -1.00210937 0.59376953 0 0 Z " fill="#A9B1B2" transform="translate(6,11)"/>
<path d="M0 0 C0.66 0.66 1.32 1.32 2 2 C1.64644564 4.26274788 1.02455574 5.95088852 0 8 C-0.66 8 -1.32 8 -2 8 C-2 5.69 -2 3.38 -2 1 C-1.34 0.67 -0.68 0.34 0 0 Z " fill="#3E4648" transform="translate(25,17)"/>
<path d="M0 0 C2.475 0.495 2.475 0.495 5 1 C5 2.32 5 3.64 5 5 C3.35 5 1.7 5 0 5 C0 3.35 0 1.7 0 0 Z " fill="#6B7476" transform="translate(21,2)"/>
<path d="M0 0 C0.66 0.33 1.32 0.66 2 1 C1.1654738 3.50357861 0.20628008 5.66785852 -1 8 C-1.99 7.67 -2.98 7.34 -4 7 C-3.39816251 4.97954558 -2.72693904 2.97888961 -2 1 C-1.34 0.67 -0.68 0.34 0 0 Z " fill="#4F5A5D" transform="translate(26,22)"/>
<path d="M0 0 C0.33 0.66 0.66 1.32 1 2 C2.32 1.67 3.64 1.34 5 1 C5 1.66 5 2.32 5 3 C2.29120665 4.35439668 -0.00933268 4.06501451 -3 4 C-2.67 3.01 -2.34 2.02 -2 1 C-1.34 0.67 -0.68 0.34 0 0 Z " fill="#485456" transform="translate(9,10)"/>
</svg>
